<mxfile host="app.diagrams.net" modified="2023-11-29T15:45:06.129Z" agent="Mozilla/5.0 (Macintosh; Intel Mac OS X 10_15_7) AppleWebKit/537.36 (KHTML, like Gecko) Chrome/119.0.0.0 Safari/537.36" etag="OLeNEAIdgmlt-I5BeNjh" version="22.1.4" type="github">
  <diagram name="Страница — 1" id="1tFQHEyD6MyFQqWJNjzJ">
    <mxGraphModel dx="984" dy="628" grid="1" gridSize="10" guides="1" tooltips="1" connect="1" arrows="1" fold="1" page="1" pageScale="1" pageWidth="827" pageHeight="1169" math="0" shadow="0">
      <root>
        <mxCell id="0" />
        <mxCell id="1" parent="0" />
        <mxCell id="14LsmqP5YFDNKOCa14oP-1" value="Client&lt;br&gt;" style="sketch=0;outlineConnect=0;fontColor=#232F3E;gradientColor=none;fillColor=#232F3D;strokeColor=none;dashed=0;verticalLabelPosition=bottom;verticalAlign=top;align=center;html=1;fontSize=12;fontStyle=0;aspect=fixed;pointerEvents=1;shape=mxgraph.aws4.client;" vertex="1" parent="1">
          <mxGeometry x="20" y="250" width="78" height="76" as="geometry" />
        </mxCell>
        <mxCell id="14LsmqP5YFDNKOCa14oP-2" value="" style="shape=flexArrow;endArrow=classic;html=1;rounded=0;" edge="1" parent="1">
          <mxGeometry width="50" height="50" relative="1" as="geometry">
            <mxPoint x="110" y="287.5" as="sourcePoint" />
            <mxPoint x="230" y="287.5" as="targetPoint" />
            <Array as="points">
              <mxPoint x="170" y="287.5" />
            </Array>
          </mxGeometry>
        </mxCell>
        <mxCell id="14LsmqP5YFDNKOCa14oP-3" value="API Gateway" style="rounded=0;whiteSpace=wrap;html=1;fontSize=20;" vertex="1" parent="1">
          <mxGeometry x="240" y="173" width="120" height="230" as="geometry" />
        </mxCell>
        <mxCell id="14LsmqP5YFDNKOCa14oP-4" value="" style="shape=flexArrow;endArrow=classic;html=1;rounded=0;exitX=1;exitY=0;exitDx=0;exitDy=0;" edge="1" parent="1" source="14LsmqP5YFDNKOCa14oP-3">
          <mxGeometry width="50" height="50" relative="1" as="geometry">
            <mxPoint x="370" y="173" as="sourcePoint" />
            <mxPoint x="480" y="80" as="targetPoint" />
          </mxGeometry>
        </mxCell>
        <mxCell id="14LsmqP5YFDNKOCa14oP-5" value="User" style="whiteSpace=wrap;html=1;aspect=fixed;align=center;fontSize=17;labelPosition=center;verticalLabelPosition=middle;verticalAlign=middle;horizontal=1;" vertex="1" parent="1">
          <mxGeometry x="490" width="150" height="150" as="geometry" />
        </mxCell>
        <mxCell id="14LsmqP5YFDNKOCa14oP-6" value="register" style="rounded=1;whiteSpace=wrap;html=1;fillColor=#ffe6cc;strokeColor=#d79b00;" vertex="1" parent="1">
          <mxGeometry x="490" width="60" height="30" as="geometry" />
        </mxCell>
        <mxCell id="14LsmqP5YFDNKOCa14oP-7" value="JWT" style="rounded=1;whiteSpace=wrap;html=1;fillColor=#f8cecc;strokeColor=#b85450;" vertex="1" parent="1">
          <mxGeometry x="580" width="60" height="30" as="geometry" />
        </mxCell>
        <mxCell id="14LsmqP5YFDNKOCa14oP-8" value="change password" style="rounded=1;whiteSpace=wrap;html=1;fillColor=#d5e8d4;strokeColor=#82b366;" vertex="1" parent="1">
          <mxGeometry x="490" y="120" width="60" height="30" as="geometry" />
        </mxCell>
        <mxCell id="14LsmqP5YFDNKOCa14oP-9" value="login" style="rounded=1;whiteSpace=wrap;html=1;arcSize=23;fillColor=#e1d5e7;strokeColor=#9673a6;" vertex="1" parent="1">
          <mxGeometry x="580" y="120" width="60" height="30" as="geometry" />
        </mxCell>
        <mxCell id="14LsmqP5YFDNKOCa14oP-10" value="get user" style="rounded=1;whiteSpace=wrap;html=1;fillColor=#fff2cc;strokeColor=#d6b656;" vertex="1" parent="1">
          <mxGeometry x="535" y="90" width="60" height="30" as="geometry" />
        </mxCell>
        <mxCell id="14LsmqP5YFDNKOCa14oP-13" value="db" style="shape=datastore;whiteSpace=wrap;html=1;" vertex="1" parent="1">
          <mxGeometry x="700" y="50" width="60" height="60" as="geometry" />
        </mxCell>
        <mxCell id="14LsmqP5YFDNKOCa14oP-14" value="" style="shape=flexArrow;endArrow=classic;startArrow=classic;html=1;rounded=0;startWidth=20;startSize=3.67;" edge="1" parent="1">
          <mxGeometry width="100" height="100" relative="1" as="geometry">
            <mxPoint x="640" y="75" as="sourcePoint" />
            <mxPoint x="700" y="75" as="targetPoint" />
            <Array as="points" />
          </mxGeometry>
        </mxCell>
        <mxCell id="14LsmqP5YFDNKOCa14oP-15" value="Notify" style="whiteSpace=wrap;html=1;aspect=fixed;fontSize=15;" vertex="1" parent="1">
          <mxGeometry x="510" y="200" width="110" height="110" as="geometry" />
        </mxCell>
        <mxCell id="14LsmqP5YFDNKOCa14oP-16" value="" style="shape=flexArrow;endArrow=classic;html=1;rounded=0;exitX=1;exitY=0.5;exitDx=0;exitDy=0;" edge="1" parent="1" source="14LsmqP5YFDNKOCa14oP-3">
          <mxGeometry width="50" height="50" relative="1" as="geometry">
            <mxPoint x="370" y="270" as="sourcePoint" />
            <mxPoint x="500" y="260" as="targetPoint" />
          </mxGeometry>
        </mxCell>
        <mxCell id="14LsmqP5YFDNKOCa14oP-19" value="crud" style="rounded=1;whiteSpace=wrap;html=1;fillColor=#f8cecc;strokeColor=#b85450;" vertex="1" parent="1">
          <mxGeometry x="510" y="200" width="60" height="30" as="geometry" />
        </mxCell>
        <mxCell id="14LsmqP5YFDNKOCa14oP-20" value="notify email" style="rounded=1;whiteSpace=wrap;html=1;fillColor=#dae8fc;strokeColor=#6c8ebf;" vertex="1" parent="1">
          <mxGeometry x="510" y="280" width="60" height="30" as="geometry" />
        </mxCell>
        <mxCell id="14LsmqP5YFDNKOCa14oP-21" value="" style="shape=flexArrow;endArrow=classic;html=1;rounded=0;" edge="1" parent="1" target="14LsmqP5YFDNKOCa14oP-22">
          <mxGeometry width="50" height="50" relative="1" as="geometry">
            <mxPoint x="360" y="400" as="sourcePoint" />
            <mxPoint x="480" y="420" as="targetPoint" />
          </mxGeometry>
        </mxCell>
        <mxCell id="14LsmqP5YFDNKOCa14oP-22" value="Blog" style="whiteSpace=wrap;html=1;aspect=fixed;fontSize=17;" vertex="1" parent="1">
          <mxGeometry x="490" y="360" width="150" height="150" as="geometry" />
        </mxCell>
        <mxCell id="14LsmqP5YFDNKOCa14oP-23" value="get list" style="rounded=1;whiteSpace=wrap;html=1;fillColor=#dae8fc;strokeColor=#6c8ebf;" vertex="1" parent="1">
          <mxGeometry x="490" y="360" width="60" height="30" as="geometry" />
        </mxCell>
        <mxCell id="14LsmqP5YFDNKOCa14oP-25" value="crud" style="rounded=1;whiteSpace=wrap;html=1;fillColor=#f8cecc;strokeColor=#b85450;" vertex="1" parent="1">
          <mxGeometry x="580" y="360" width="60" height="30" as="geometry" />
        </mxCell>
        <mxCell id="14LsmqP5YFDNKOCa14oP-26" value="like" style="rounded=1;whiteSpace=wrap;html=1;fillColor=#d5e8d4;strokeColor=#82b366;" vertex="1" parent="1">
          <mxGeometry x="490" y="480" width="60" height="30" as="geometry" />
        </mxCell>
        <mxCell id="14LsmqP5YFDNKOCa14oP-27" value="subscibe" style="rounded=1;whiteSpace=wrap;html=1;fillColor=#e1d5e7;strokeColor=#9673a6;" vertex="1" parent="1">
          <mxGeometry x="580" y="480" width="60" height="30" as="geometry" />
        </mxCell>
        <mxCell id="14LsmqP5YFDNKOCa14oP-31" value="" style="shape=flexArrow;endArrow=classic;html=1;rounded=0;" edge="1" parent="1" source="14LsmqP5YFDNKOCa14oP-3" target="14LsmqP5YFDNKOCa14oP-32">
          <mxGeometry width="50" height="50" relative="1" as="geometry">
            <mxPoint x="350" y="403" as="sourcePoint" />
            <mxPoint x="370" y="570" as="targetPoint" />
          </mxGeometry>
        </mxCell>
        <mxCell id="14LsmqP5YFDNKOCa14oP-32" value="Comment" style="whiteSpace=wrap;html=1;aspect=fixed;fontSize=15;" vertex="1" parent="1">
          <mxGeometry x="334" y="560" width="126" height="126" as="geometry" />
        </mxCell>
        <mxCell id="14LsmqP5YFDNKOCa14oP-33" value="crud" style="rounded=1;whiteSpace=wrap;html=1;fillColor=#ffe6cc;strokeColor=#d79b00;" vertex="1" parent="1">
          <mxGeometry x="334" y="560" width="60" height="30" as="geometry" />
        </mxCell>
        <mxCell id="14LsmqP5YFDNKOCa14oP-37" value="" style="shape=flexArrow;endArrow=classic;startArrow=classic;html=1;rounded=0;" edge="1" parent="1">
          <mxGeometry width="100" height="100" relative="1" as="geometry">
            <mxPoint x="620" y="250" as="sourcePoint" />
            <mxPoint x="680" y="250" as="targetPoint" />
          </mxGeometry>
        </mxCell>
        <mxCell id="14LsmqP5YFDNKOCa14oP-40" value="db" style="shape=datastore;whiteSpace=wrap;html=1;" vertex="1" parent="1">
          <mxGeometry x="680" y="220" width="60" height="60" as="geometry" />
        </mxCell>
        <mxCell id="14LsmqP5YFDNKOCa14oP-41" value="db" style="shape=datastore;whiteSpace=wrap;html=1;" vertex="1" parent="1">
          <mxGeometry x="700" y="405" width="60" height="60" as="geometry" />
        </mxCell>
        <mxCell id="14LsmqP5YFDNKOCa14oP-42" value="db" style="shape=datastore;whiteSpace=wrap;html=1;" vertex="1" parent="1">
          <mxGeometry x="367" y="750" width="60" height="60" as="geometry" />
        </mxCell>
        <mxCell id="14LsmqP5YFDNKOCa14oP-43" value="" style="shape=flexArrow;endArrow=classic;startArrow=classic;html=1;rounded=0;" edge="1" parent="1" target="14LsmqP5YFDNKOCa14oP-41">
          <mxGeometry width="100" height="100" relative="1" as="geometry">
            <mxPoint x="640" y="440" as="sourcePoint" />
            <mxPoint x="740" y="340" as="targetPoint" />
          </mxGeometry>
        </mxCell>
        <mxCell id="14LsmqP5YFDNKOCa14oP-44" value="" style="shape=flexArrow;endArrow=classic;startArrow=classic;html=1;rounded=0;" edge="1" parent="1" source="14LsmqP5YFDNKOCa14oP-42" target="14LsmqP5YFDNKOCa14oP-32">
          <mxGeometry width="100" height="100" relative="1" as="geometry">
            <mxPoint x="390" y="730" as="sourcePoint" />
            <mxPoint x="490" y="630" as="targetPoint" />
          </mxGeometry>
        </mxCell>
        <mxCell id="14LsmqP5YFDNKOCa14oP-46" value="get list" style="rounded=1;whiteSpace=wrap;html=1;fillColor=#dae8fc;strokeColor=#6c8ebf;" vertex="1" parent="1">
          <mxGeometry x="400" y="560" width="60" height="30" as="geometry" />
        </mxCell>
        <mxCell id="14LsmqP5YFDNKOCa14oP-47" value="find" style="rounded=1;whiteSpace=wrap;html=1;fillColor=#f8cecc;strokeColor=#b85450;" vertex="1" parent="1">
          <mxGeometry x="535" y="450" width="60" height="30" as="geometry" />
        </mxCell>
        <mxCell id="14LsmqP5YFDNKOCa14oP-48" value="FileVault" style="whiteSpace=wrap;html=1;aspect=fixed;" vertex="1" parent="1">
          <mxGeometry x="78.5" y="560" width="126" height="126" as="geometry" />
        </mxCell>
        <mxCell id="14LsmqP5YFDNKOCa14oP-50" value="" style="shape=flexArrow;endArrow=classic;html=1;rounded=0;" edge="1" parent="1" source="14LsmqP5YFDNKOCa14oP-3" target="14LsmqP5YFDNKOCa14oP-48">
          <mxGeometry width="50" height="50" relative="1" as="geometry">
            <mxPoint x="230" y="460" as="sourcePoint" />
            <mxPoint x="280" y="410" as="targetPoint" />
          </mxGeometry>
        </mxCell>
        <mxCell id="14LsmqP5YFDNKOCa14oP-51" value="crud" style="rounded=1;whiteSpace=wrap;html=1;fillColor=#f8cecc;strokeColor=#b85450;arcSize=20;" vertex="1" parent="1">
          <mxGeometry x="80" y="560" width="60" height="30" as="geometry" />
        </mxCell>
        <mxCell id="14LsmqP5YFDNKOCa14oP-52" value="get" style="rounded=1;whiteSpace=wrap;html=1;fillColor=#ffe6cc;strokeColor=#d79b00;" vertex="1" parent="1">
          <mxGeometry x="143" y="563" width="60" height="30" as="geometry" />
        </mxCell>
        <mxCell id="14LsmqP5YFDNKOCa14oP-54" value="db" style="shape=datastore;whiteSpace=wrap;html=1;" vertex="1" parent="1">
          <mxGeometry x="111.5" y="750" width="60" height="60" as="geometry" />
        </mxCell>
        <mxCell id="14LsmqP5YFDNKOCa14oP-56" value="" style="shape=flexArrow;endArrow=classic;startArrow=classic;html=1;rounded=0;entryX=0.5;entryY=1;entryDx=0;entryDy=0;exitX=0.5;exitY=0;exitDx=0;exitDy=0;" edge="1" parent="1" source="14LsmqP5YFDNKOCa14oP-54" target="14LsmqP5YFDNKOCa14oP-48">
          <mxGeometry width="100" height="100" relative="1" as="geometry">
            <mxPoint x="98" y="790" as="sourcePoint" />
            <mxPoint x="198" y="690" as="targetPoint" />
          </mxGeometry>
        </mxCell>
      </root>
    </mxGraphModel>
  </diagram>
</mxfile>
